<svg width="619" height="721" viewBox="0 0 619 721" fill="none" xmlns="http://www.w3.org/2000/svg">
<g filter="url(#filter0_dd)">
<path d="M20.4534 290.141C16.7289 280.181 18.6321 268.936 25.449 260.624L229.528 11.7858C236.37 3.44339 247.121 -0.676669 257.724 0.980869L573.159 50.2958C583.762 51.9534 592.6 59.136 596.338 69.1325L707.838 367.308C711.563 377.268 709.659 388.513 702.842 396.826L498.763 645.664C491.921 654.006 481.17 658.126 470.568 656.469L155.132 607.154C144.53 605.496 135.692 598.314 131.954 588.317L20.4534 290.141Z" fill="url(#paint0_linear)"/>
</g>
<defs>
<filter id="filter0_dd" x="0.578125" y="0.619629" width="751.135" height="720.211" filterUnits="userSpaceOnUse" color-interpolation-filters="sRGB">
<feFlood flood-opacity="0" result="BackgroundImageFix"/>
<feColorMatrix in="SourceAlpha" type="matrix" values="0 0 0 0 0 0 0 0 0 0 0 0 0 0 0 0 0 0 127 0"/>
<feOffset dx="12" dy="34"/>
<feGaussianBlur stdDeviation="15"/>
<feColorMatrix type="matrix" values="0 0 0 0 0.564864 0 0 0 0 0.414375 0 0 0 0 0.85 0 0 0 0.22 0"/>
<feBlend mode="normal" in2="BackgroundImageFix" result="effect1_dropShadow"/>
<feColorMatrix in="SourceAlpha" type="matrix" values="0 0 0 0 0 0 0 0 0 0 0 0 0 0 0 0 0 0 127 0"/>
<feOffset dy="4"/>
<feGaussianBlur stdDeviation="2"/>
<feColorMatrix type="matrix" values="0 0 0 0 0 0 0 0 0 0 0 0 0 0 0 0 0 0 0.25 0"/>
<feBlend mode="normal" in2="effect1_dropShadow" result="effect2_dropShadow"/>
<feBlend mode="normal" in="SourceGraphic" in2="effect2_dropShadow" result="shape"/>
</filter>
<linearGradient id="paint0_linear" x1="14.4368" y1="274.052" x2="635.685" y2="202.616" gradientUnits="userSpaceOnUse">
<stop stop-color="#5832A0"/>
<stop offset="1" stop-color="#5832A0"/>
</linearGradient>
</defs>
</svg>
